<svg height="512" width="512" xmlns="http://www.w3.org/2000/svg" xmlns:xlink="http://www.w3.org/1999/xlink">
  <linearGradient id="a">
    <stop offset="0" stop-color="#ab2c37"/>
    <stop offset=".201" stop-color="#b52f3b"/>
    <stop offset=".547" stop-color="#d13846"/>
    <stop offset=".995" stop-color="#fe4757"/>
    <stop offset="1" stop-color="#ff4757"/>
  </linearGradient>
  <linearGradient id="b" gradientUnits="userSpaceOnUse" x1="166.068" x2="305.435" xlink:href="#a" y1="304.738" y2="63.347"/>
  <linearGradient id="c" gradientUnits="userSpaceOnUse" x1="228.632" x2="269.669" y1="332.269" y2="332.269">
    <stop offset="0" stop-color="#c5baeb"/>
    <stop offset="1" stop-color="#d7d1eb"/>
  </linearGradient>
  <linearGradient id="d" gradientUnits="userSpaceOnUse" x1="235.095" x2="292.638" xlink:href="#a" y1="409.318" y2="409.318"/>
  <path d="M231.615 16.922l-.012.01C206.259-.302 170.078 1.11 124.648 27.34 55.807 67.085 0 146.565 0 204.864l262.705 152.941 226.903-191.37z" fill="url(#b)"/>
  <path d="M157.602 46.375c41.939-24.213 75.988-27.264 100.913-14.034l-9.203-5.333-.012.01c-25.343-17.234-61.525-15.822-106.955 10.407C73.504 77.172 17.697 156.652 17.697 214.951l15.259 8.883c.042-58.293 55.83-137.728 124.646-177.459z" fill="#ab2c37"/>
  <path d="M226.245 86.419c41.939-24.213 75.988-27.264 100.913-14.034l-9.203-5.333-.012.01C292.6 49.829 256.418 51.241 210.988 77.47 142.147 117.215 86.34 196.696 86.34 254.994l15.259 8.884c.042-58.293 55.83-137.729 124.646-177.459z" fill="#ab2c37"/>
  <path d="M294.854 126.276c41.939-24.213 75.988-27.264 100.913-14.034l-9.203-5.333-.012.01c-25.343-17.234-61.525-15.822-106.955 10.407-68.841 39.747-124.647 119.227-124.647 177.526l15.259 8.883c.041-58.293 55.83-137.728 124.645-177.459z" fill="#ab2c37"/>
  <path d="M362.594 165.796c41.939-24.213 75.988-27.264 100.913-14.034l-9.203-5.333-.012.01c-25.343-17.234-61.525-15.822-106.955 10.407-68.84 39.747-124.647 119.227-124.647 177.526l15.259 8.883c.041-58.293 55.83-137.728 124.645-177.459z" fill="#ab2c37"/>
  <path d="M387.352 180.281c-68.325 39.447-123.781 118.025-124.609 176.199l-.016.039L0 204.864v140.119a27.371 27.371 0 0013.685 23.704l229.636 132.58a38.806 38.806 0 0038.81-.002l216.186-124.852a27.37 27.37 0 0013.682-23.702V213.874c.001-58.298-55.806-73.339-124.647-33.593z" fill="url(#c)"/>
  <path d="M498.318 343.6L282.132 468.451a38.808 38.808 0 01-38.811.003L13.685 335.874A27.371 27.371 0 010 312.17v32.813a27.371 27.371 0 0013.685 23.704l229.636 132.581a38.808 38.808 0 0038.811-.003l216.186-124.851A27.37 27.37 0 00512 352.712v-32.813a27.372 27.372 0 01-13.682 23.701z" fill="url(#d)"/>
  <g fill="#43386b">
    <path d="M357.369 457.788l89.749-51.817v-88.457l-89.749 52.025zM79.854 326.983l-28.767-16.542v-44.967l28.767 16.676zM185.254 388.493l-28.767-16.542v-44.968l28.767 16.676zM357.369 342.73l28.767-16.542v-44.967l-28.767 16.675zM418.351 307.431l28.767-16.542v-44.967l-28.767 16.675z"/>
  </g>
</svg>