<svg xmlns="http://www.w3.org/2000/svg" viewBox="0 0 512 512">
  <defs/>
  <path fill="#287359" d="M221 44c9.3-10 22.8-17.7 36.8-15.4l-2 .5c-.3 3-.2 6-.2 8.9l.1 393.4c-6 .2-11.7-1.4-17.5-2.6-21.5-5.4-41.6-16.1-58.4-30.7a175.8 175.8 0 01-48-70.5 212.3 212.3 0 01-14.5-72.6 134 134 0 0117.5-73.2 69.2 69.2 0 0143.6-32.2c4-23.8 10.2-47.3 19.8-69.3 5.9-13.1 13-25.8 22.9-36.3z"/>
  <path fill="#48a16f" d="M255.9 29.1c.5 0 1.4-.3 1.9-.5C271.2 31 281.9 40.5 290 51c12 15.8 19.9 34.4 26 53.2 10.3 32.6 15 66.7 16.6 100.8.6 8.2-.2 16.4.7 24.5A87.4 87.4 0 01383 273c17.7 33.9 15 76.8-4.8 109.2a96.8 96.8 0 01-40.7 36.2 148.6 148.6 0 01-62 13.9c-.5 17.1 0 34.4-.3 51.6-.2-17.2.1-34.4-.2-51.6-6.4.4-12.9 0-19.3-.3v-.5c-.1-131.1 0-262.3 0-393.4-.1-3-.2-6 .2-8.9z"/>
  <path fill="#7a542b" d="M238.2 428.8c5.8 1.1 11.6 2.8 17.5 2.6v.6c-.2 16.4 0 32.8 0 49.3l-.4 2.5H238c.2-18.3 0-36.7.1-55z"/>
  <path fill="#ad6630" d="M255.7 432c6.4.1 12.9.6 19.3.2.3 17.2 0 34.4.2 51.6h-20l.4-2.5c.1-16.5 0-33 0-49.4z"/>
</svg>